# xmcd
#
# Track frame offsets:
#	150
#	17260
#	33387
#	43467
#	58012
#	70537
#	83547
#	99157
#	113807
#	130015
#
# Disc length: 1894 seconds
#
# Revision: 1
# Processed by: cddbd v1.5.2PL0 Copyright (c) Steve Scherf et al.
# Submitted via: audiograbber 1.83.01
#
DISCID=7107640a
DTITLE=Sherrie Gaylord - Time to Choose
DYEAR=1991
DGENRE=Country
TTITLE0=Harder Than Diamonds to Hold
TTITLE1=Sound of My Heart Breaking
TTITLE2=Tell Me So
TTITLE3=No Easy Way to Say Goodbye
TTITLE4=Valley Corn
TTITLE5=I Gotta Know
TTITLE6=Say You Won't Play With My Heart
TTITLE7=Two Steppin'
TTITLE8=Time to Choose
TTITLE9=Deliver Me
EXTD=
EXTT0=
EXTT1=
EXTT2=
EXTT3=
EXTT4=
EXTT5=
EXTT6=
EXTT7=
EXTT8=
EXTT9=
PLAYORDER=
